<mxfile host="app.diagrams.net" modified="2023-11-27T01:45:31.348Z" agent="Mozilla/5.0 (X11; Ubuntu; Linux x86_64; rv:109.0) Gecko/20100101 Firefox/119.0" etag="7wt0--lYtRYWxVPKvUiM" version="22.1.4" type="github">
  <diagram name="Page-1" id="NEI-y_SCfnPRr0OXlCEQ">
    <mxGraphModel dx="1989" dy="1445" grid="1" gridSize="10" guides="1" tooltips="1" connect="1" arrows="1" fold="1" page="1" pageScale="1" pageWidth="850" pageHeight="1100" math="0" shadow="0">
      <root>
        <mxCell id="0" />
        <mxCell id="1" parent="0" />
        <mxCell id="NlNhp5qo4efbmxI5kPey-1" value="&lt;font style=&quot;font-size: 36px;&quot;&gt;&lt;u&gt;A1&lt;/u&gt;&lt;/font&gt;" style="rounded=0;whiteSpace=wrap;html=1;" parent="1" vertex="1">
          <mxGeometry x="160" y="200" width="120" height="60" as="geometry" />
        </mxCell>
        <mxCell id="NlNhp5qo4efbmxI5kPey-2" value="&lt;font style=&quot;font-size: 36px;&quot;&gt;A2&lt;/font&gt;" style="rounded=0;whiteSpace=wrap;html=1;" parent="1" vertex="1">
          <mxGeometry x="280" y="200" width="120" height="60" as="geometry" />
        </mxCell>
        <mxCell id="NlNhp5qo4efbmxI5kPey-3" value="&lt;font style=&quot;font-size: 36px;&quot;&gt;&lt;u&gt;A3&lt;/u&gt;&lt;/font&gt;" style="rounded=0;whiteSpace=wrap;html=1;" parent="1" vertex="1">
          <mxGeometry x="160" y="320" width="120" height="60" as="geometry" />
        </mxCell>
        <mxCell id="NlNhp5qo4efbmxI5kPey-4" value="&lt;font style=&quot;font-size: 36px;&quot;&gt;A4&lt;/font&gt;" style="rounded=0;whiteSpace=wrap;html=1;" parent="1" vertex="1">
          <mxGeometry x="280" y="320" width="120" height="60" as="geometry" />
        </mxCell>
        <mxCell id="NlNhp5qo4efbmxI5kPey-24" style="edgeStyle=orthogonalEdgeStyle;rounded=0;orthogonalLoop=1;jettySize=auto;html=1;exitX=0.5;exitY=0;exitDx=0;exitDy=0;entryX=0.5;entryY=1;entryDx=0;entryDy=0;" parent="1" source="NlNhp5qo4efbmxI5kPey-5" target="NlNhp5qo4efbmxI5kPey-1" edge="1">
          <mxGeometry relative="1" as="geometry" />
        </mxCell>
        <mxCell id="NlNhp5qo4efbmxI5kPey-5" value="&lt;font style=&quot;font-size: 36px;&quot;&gt;EA1&lt;/font&gt;" style="rounded=0;whiteSpace=wrap;html=1;" parent="1" vertex="1">
          <mxGeometry x="520" y="320" width="120" height="60" as="geometry" />
        </mxCell>
        <mxCell id="NlNhp5qo4efbmxI5kPey-6" value="&lt;font style=&quot;font-size: 36px;&quot;&gt;&lt;u&gt;A6&lt;/u&gt;&lt;/font&gt;" style="rounded=0;whiteSpace=wrap;html=1;" parent="1" vertex="1">
          <mxGeometry x="160" y="440" width="120" height="60" as="geometry" />
        </mxCell>
        <mxCell id="NlNhp5qo4efbmxI5kPey-7" value="&lt;font style=&quot;font-size: 36px;&quot;&gt;A7&lt;/font&gt;" style="rounded=0;whiteSpace=wrap;html=1;" parent="1" vertex="1">
          <mxGeometry x="280" y="440" width="120" height="60" as="geometry" />
        </mxCell>
        <mxCell id="NlNhp5qo4efbmxI5kPey-34" style="edgeStyle=orthogonalEdgeStyle;rounded=0;orthogonalLoop=1;jettySize=auto;html=1;exitX=0;exitY=0.5;exitDx=0;exitDy=0;entryX=0;entryY=0.5;entryDx=0;entryDy=0;" parent="1" source="NlNhp5qo4efbmxI5kPey-9" target="NlNhp5qo4efbmxI5kPey-15" edge="1">
          <mxGeometry relative="1" as="geometry" />
        </mxCell>
        <mxCell id="NlNhp5qo4efbmxI5kPey-9" value="&lt;font style=&quot;font-size: 36px;&quot;&gt;&lt;u&gt;&lt;font&gt;EA8&lt;/font&gt;&lt;/u&gt;&lt;/font&gt;" style="rounded=0;whiteSpace=wrap;html=1;" parent="1" vertex="1">
          <mxGeometry x="160" y="800" width="120" height="60" as="geometry" />
        </mxCell>
        <mxCell id="NlNhp5qo4efbmxI5kPey-10" value="&lt;font style=&quot;font-size: 36px;&quot;&gt;&lt;u&gt;&lt;font&gt;A10&lt;/font&gt;&lt;/u&gt;&lt;/font&gt;" style="rounded=0;whiteSpace=wrap;html=1;" parent="1" vertex="1">
          <mxGeometry x="280" y="800" width="120" height="60" as="geometry" />
        </mxCell>
        <mxCell id="NlNhp5qo4efbmxI5kPey-11" value="&lt;font style=&quot;font-size: 36px;&quot;&gt;A11&lt;/font&gt;" style="rounded=0;whiteSpace=wrap;html=1;" parent="1" vertex="1">
          <mxGeometry x="400" y="800" width="120" height="60" as="geometry" />
        </mxCell>
        <mxCell id="NlNhp5qo4efbmxI5kPey-12" value="&lt;font style=&quot;font-size: 36px;&quot;&gt;&lt;u&gt;&lt;font&gt;A12&lt;/font&gt;&lt;/u&gt;&lt;/font&gt;" style="rounded=0;whiteSpace=wrap;html=1;" parent="1" vertex="1">
          <mxGeometry x="160" y="680" width="120" height="60" as="geometry" />
        </mxCell>
        <mxCell id="NlNhp5qo4efbmxI5kPey-13" value="&lt;font style=&quot;font-size: 36px;&quot;&gt;A13&lt;/font&gt;" style="rounded=0;whiteSpace=wrap;html=1;" parent="1" vertex="1">
          <mxGeometry x="280" y="680" width="120" height="60" as="geometry" />
        </mxCell>
        <mxCell id="NlNhp5qo4efbmxI5kPey-35" style="edgeStyle=orthogonalEdgeStyle;rounded=0;orthogonalLoop=1;jettySize=auto;html=1;exitX=0.5;exitY=0;exitDx=0;exitDy=0;entryX=0.5;entryY=1;entryDx=0;entryDy=0;" parent="1" source="NlNhp5qo4efbmxI5kPey-14" target="NlNhp5qo4efbmxI5kPey-15" edge="1">
          <mxGeometry relative="1" as="geometry" />
        </mxCell>
        <mxCell id="NlNhp5qo4efbmxI5kPey-14" value="&lt;font style=&quot;font-size: 36px;&quot;&gt;EA8&lt;/font&gt;" style="rounded=0;whiteSpace=wrap;html=1;" parent="1" vertex="1">
          <mxGeometry x="400" y="680" width="120" height="60" as="geometry" />
        </mxCell>
        <mxCell id="NlNhp5qo4efbmxI5kPey-15" value="&lt;font style=&quot;font-size: 36px;&quot;&gt;&lt;u&gt;&lt;font&gt;A8&lt;/font&gt;&lt;/u&gt;&lt;/font&gt;" style="rounded=0;whiteSpace=wrap;html=1;" parent="1" vertex="1">
          <mxGeometry x="160" y="560" width="120" height="60" as="geometry" />
        </mxCell>
        <mxCell id="NlNhp5qo4efbmxI5kPey-16" value="&lt;font style=&quot;font-size: 36px;&quot;&gt;A9&lt;/font&gt;" style="rounded=0;whiteSpace=wrap;html=1;" parent="1" vertex="1">
          <mxGeometry x="280" y="560" width="120" height="60" as="geometry" />
        </mxCell>
        <mxCell id="NlNhp5qo4efbmxI5kPey-17" value="&lt;font style=&quot;font-size: 36px;&quot;&gt;A14&lt;/font&gt;" style="rounded=0;whiteSpace=wrap;html=1;" parent="1" vertex="1">
          <mxGeometry x="520" y="680" width="120" height="60" as="geometry" />
        </mxCell>
        <mxCell id="NlNhp5qo4efbmxI5kPey-40" style="edgeStyle=orthogonalEdgeStyle;rounded=0;orthogonalLoop=1;jettySize=auto;html=1;exitX=0.5;exitY=1;exitDx=0;exitDy=0;" parent="1" edge="1">
          <mxGeometry relative="1" as="geometry">
            <mxPoint x="160" y="470" as="targetPoint" />
            <mxPoint x="240" y="1100" as="sourcePoint" />
            <Array as="points">
              <mxPoint x="240" y="1120" />
              <mxPoint x="120" y="1120" />
              <mxPoint x="120" y="470" />
            </Array>
          </mxGeometry>
        </mxCell>
        <mxCell id="NlNhp5qo4efbmxI5kPey-18" value="&lt;font style=&quot;font-size: 36px;&quot;&gt;&lt;u&gt;&lt;font&gt;RA6&lt;/font&gt;&lt;/u&gt;&lt;/font&gt;" style="rounded=0;whiteSpace=wrap;html=1;" parent="1" vertex="1">
          <mxGeometry x="160" y="1040" width="140" height="60" as="geometry" />
        </mxCell>
        <mxCell id="NlNhp5qo4efbmxI5kPey-37" style="edgeStyle=orthogonalEdgeStyle;rounded=0;orthogonalLoop=1;jettySize=auto;html=1;exitX=0.5;exitY=1;exitDx=0;exitDy=0;entryX=0.5;entryY=0;entryDx=0;entryDy=0;" parent="1" source="NlNhp5qo4efbmxI5kPey-19" target="NlNhp5qo4efbmxI5kPey-1" edge="1">
          <mxGeometry relative="1" as="geometry">
            <mxPoint x="820" y="1090" as="sourcePoint" />
            <mxPoint x="670" y="190" as="targetPoint" />
            <Array as="points">
              <mxPoint x="370" y="1120" />
              <mxPoint x="750" y="1120" />
              <mxPoint x="750" y="150" />
              <mxPoint x="220" y="150" />
            </Array>
          </mxGeometry>
        </mxCell>
        <mxCell id="NlNhp5qo4efbmxI5kPey-19" value="&lt;font style=&quot;font-size: 36px;&quot;&gt;&lt;u&gt;&lt;font&gt;RA1&lt;/font&gt;&lt;/u&gt;&lt;/font&gt;" style="rounded=0;whiteSpace=wrap;html=1;" parent="1" vertex="1">
          <mxGeometry x="300" y="1040" width="140" height="60" as="geometry" />
        </mxCell>
        <mxCell id="NlNhp5qo4efbmxI5kPey-36" style="edgeStyle=orthogonalEdgeStyle;rounded=0;orthogonalLoop=1;jettySize=auto;html=1;exitX=0.5;exitY=0;exitDx=0;exitDy=0;entryX=0.5;entryY=0;entryDx=0;entryDy=0;" parent="1" source="NlNhp5qo4efbmxI5kPey-20" target="NlNhp5qo4efbmxI5kPey-15" edge="1">
          <mxGeometry relative="1" as="geometry">
            <Array as="points">
              <mxPoint x="515" y="1020" />
              <mxPoint x="710" y="1020" />
              <mxPoint x="710" y="540" />
              <mxPoint x="220" y="540" />
            </Array>
          </mxGeometry>
        </mxCell>
        <mxCell id="NlNhp5qo4efbmxI5kPey-20" value="&lt;font style=&quot;font-size: 36px;&quot;&gt;&lt;u&gt;&lt;font&gt;RA8&lt;/font&gt;&lt;/u&gt;&lt;/font&gt;" style="rounded=0;whiteSpace=wrap;html=1;" parent="1" vertex="1">
          <mxGeometry x="440" y="1040" width="150" height="60" as="geometry" />
        </mxCell>
        <mxCell id="NlNhp5qo4efbmxI5kPey-41" style="edgeStyle=orthogonalEdgeStyle;rounded=0;orthogonalLoop=1;jettySize=auto;html=1;exitX=0.5;exitY=1;exitDx=0;exitDy=0;entryX=0.75;entryY=0;entryDx=0;entryDy=0;" parent="1" target="NlNhp5qo4efbmxI5kPey-1" edge="1">
          <mxGeometry relative="1" as="geometry">
            <mxPoint x="230" y="970" as="sourcePoint" />
            <mxPoint x="230" y="190" as="targetPoint" />
            <Array as="points">
              <mxPoint x="230" y="1000" />
              <mxPoint x="730" y="1000" />
              <mxPoint x="730" y="170" />
              <mxPoint x="250" y="170" />
            </Array>
          </mxGeometry>
        </mxCell>
        <mxCell id="NlNhp5qo4efbmxI5kPey-21" value="&lt;font style=&quot;font-size: 36px;&quot;&gt;&lt;u&gt;&lt;font&gt;RA1&lt;/font&gt;&lt;/u&gt;&lt;/font&gt;" style="rounded=0;whiteSpace=wrap;html=1;" parent="1" vertex="1">
          <mxGeometry x="160" y="920" width="120" height="60" as="geometry" />
        </mxCell>
        <mxCell id="NlNhp5qo4efbmxI5kPey-42" style="edgeStyle=orthogonalEdgeStyle;rounded=0;orthogonalLoop=1;jettySize=auto;html=1;exitX=0.5;exitY=0;exitDx=0;exitDy=0;entryX=0.5;entryY=1;entryDx=0;entryDy=0;" parent="1" source="NlNhp5qo4efbmxI5kPey-22" target="NlNhp5qo4efbmxI5kPey-12" edge="1">
          <mxGeometry relative="1" as="geometry">
            <Array as="points">
              <mxPoint x="340" y="900" />
              <mxPoint x="590" y="900" />
              <mxPoint x="590" y="770" />
              <mxPoint x="220" y="770" />
            </Array>
          </mxGeometry>
        </mxCell>
        <mxCell id="NlNhp5qo4efbmxI5kPey-22" value="&lt;font style=&quot;font-size: 36px;&quot;&gt;&lt;u&gt;RA12&lt;/u&gt;&lt;/font&gt;" style="rounded=0;whiteSpace=wrap;html=1;" parent="1" vertex="1">
          <mxGeometry x="280" y="920" width="120" height="60" as="geometry" />
        </mxCell>
        <mxCell id="NlNhp5qo4efbmxI5kPey-26" value="&lt;font style=&quot;font-size: 48px;&quot;&gt;E1:&lt;/font&gt;" style="text;html=1;align=center;verticalAlign=middle;resizable=0;points=[];autosize=1;strokeColor=none;fillColor=none;" parent="1" vertex="1">
          <mxGeometry y="200" width="100" height="70" as="geometry" />
        </mxCell>
        <mxCell id="NlNhp5qo4efbmxI5kPey-27" value="&lt;font style=&quot;font-size: 48px;&quot;&gt;E4:&lt;/font&gt;" style="text;html=1;align=center;verticalAlign=middle;resizable=0;points=[];autosize=1;strokeColor=none;fillColor=none;" parent="1" vertex="1">
          <mxGeometry y="560" width="100" height="70" as="geometry" />
        </mxCell>
        <mxCell id="NlNhp5qo4efbmxI5kPey-28" value="&lt;font style=&quot;font-size: 48px;&quot;&gt;E3:&lt;/font&gt;" style="text;html=1;align=center;verticalAlign=middle;resizable=0;points=[];autosize=1;strokeColor=none;fillColor=none;" parent="1" vertex="1">
          <mxGeometry y="440" width="100" height="70" as="geometry" />
        </mxCell>
        <mxCell id="NlNhp5qo4efbmxI5kPey-29" value="&lt;font style=&quot;font-size: 48px;&quot;&gt;E2:&lt;/font&gt;" style="text;html=1;align=center;verticalAlign=middle;resizable=0;points=[];autosize=1;strokeColor=none;fillColor=none;" parent="1" vertex="1">
          <mxGeometry y="310" width="100" height="70" as="geometry" />
        </mxCell>
        <mxCell id="NlNhp5qo4efbmxI5kPey-30" value="&lt;font style=&quot;font-size: 48px;&quot;&gt;R5:&lt;/font&gt;" style="text;html=1;align=center;verticalAlign=middle;resizable=0;points=[];autosize=1;strokeColor=none;fillColor=none;" parent="1" vertex="1">
          <mxGeometry y="920" width="100" height="70" as="geometry" />
        </mxCell>
        <mxCell id="NlNhp5qo4efbmxI5kPey-31" value="&lt;font style=&quot;font-size: 48px;&quot;&gt;E5:&lt;/font&gt;" style="text;html=1;align=center;verticalAlign=middle;resizable=0;points=[];autosize=1;strokeColor=none;fillColor=none;" parent="1" vertex="1">
          <mxGeometry y="800" width="100" height="70" as="geometry" />
        </mxCell>
        <mxCell id="NlNhp5qo4efbmxI5kPey-32" value="&lt;font style=&quot;font-size: 48px;&quot;&gt;E6:&lt;/font&gt;" style="text;html=1;align=center;verticalAlign=middle;resizable=0;points=[];autosize=1;strokeColor=none;fillColor=none;" parent="1" vertex="1">
          <mxGeometry y="680" width="100" height="70" as="geometry" />
        </mxCell>
        <mxCell id="NlNhp5qo4efbmxI5kPey-33" value="&lt;font style=&quot;font-size: 48px;&quot;&gt;R2:&lt;/font&gt;" style="text;html=1;align=center;verticalAlign=middle;resizable=0;points=[];autosize=1;strokeColor=none;fillColor=none;" parent="1" vertex="1">
          <mxGeometry y="1040" width="100" height="70" as="geometry" />
        </mxCell>
        <mxCell id="NlNhp5qo4efbmxI5kPey-43" value="&lt;font style=&quot;font-size: 36px;&quot;&gt;A5&lt;/font&gt;" style="rounded=0;whiteSpace=wrap;html=1;" parent="1" vertex="1">
          <mxGeometry x="400" y="320" width="120" height="60" as="geometry" />
        </mxCell>
      </root>
    </mxGraphModel>
  </diagram>
</mxfile>
